<svg xmlns="http://www.w3.org/2000/svg" viewBox="0 0 1790.99 1786"><defs><style>.a{fill:#c2e812;}.a,.b,.c,.d,.e{fill-rule:evenodd;}.b{fill:#69be28;}.c{fill:#86888a;}.d{fill:#0077b5;}.e{fill:#32b4fa;}</style></defs><path class="a" d="M3049.09,1256.29l195.19-112.67c16.78-9.75,35.14-11.34,53.28-5a61.18,61.18,0,0,1,38.31,37.18,892.38,892.38,0,0,1,59.62,321.92,860.16,860.16,0,0,1-5,94.09c-2,19.27-11.34,35.14-27.21,46-16.09,11.11-34,14.05-52.82,9.07l-217.87-58.27a63.33,63.33,0,0,1-47.15-64.84c.45-8.61.45-17.45.45-26.07a545.54,545.54,0,0,0-25.84-166.63c-9.07-29,2.72-59.62,29-74.81Z" transform="translate(-1604.51 -607)"/><path class="b" d="M2932.56,2164.71v-5.22c0-16.32-.91-32.42-2.5-48.29a426.51,426.51,0,0,0-49.65-157.11c-13.6-25.16-9.52-54.86,10.43-75.26a544.44,544.44,0,0,0,94.77-131.27c13.83-27,44-40.12,73.22-32.41l217.87,58.49c18.59,5,32.87,16.77,41,34.23,8.39,17.45,8.62,35.82.91,53.5a903.26,903.26,0,0,1-283.84,354.57c-20,14.74-44.66,17-66.88,5.9s-35.36-32.42-35.36-57.13Z" transform="translate(-1604.51 -607)"/><path class="c" d="M2750.06,1012.13a546.59,546.59,0,0,1,154.16,118.34,63.29,63.29,0,0,0,79.12,12.47L3178.53,1030c16.78-9.53,27.44-24.49,31.06-43.53,3.4-19-1.13-37-13.15-51.92a898.47,898.47,0,0,0-332.8-255.5c-17.68-7.93-36-7.71-53.5.68s-29.25,22.45-34.24,41l-58.26,217.86c-7.94,29.47,5.44,59.4,32.42,73.46Z" transform="translate(-1604.51 -607)"/><path class="d" d="M2500,1206c-161,0-291.55,130.58-291.55,291.77,0,161,130.59,291.55,291.55,291.55s291.55-130.58,291.55-291.55C2791.55,1336.54,2661,1206,2500,1206Z" transform="translate(-1604.51 -607)"/><path class="e" d="M1954.09,2393V1500c0-266.15,194.06-494,448-539.56a556.22,556.22,0,0,1,124.24-8.16c30.38,1.36,56.9-17.91,64.61-47.39L2649.4,687c5-18.59,1.81-36.73-9.07-52.6a63,63,0,0,0-19.95-18.82,889.55,889.55,0,0,0-462.71,58.95C1833.93,809,1604.51,1129.11,1604.51,1500v686.47c0,113.81,93,206.53,206.75,206.53Z" transform="translate(-1604.51 -607)"/><path class="d" d="M2215.71,2043.64a304.15,304.15,0,0,0-22.9,115.85V2393H2500a888.12,888.12,0,0,0,274.54-44,63.44,63.44,0,0,0,32.65-56V2159.49a305.16,305.16,0,0,0-56.45-176.6,19.46,19.46,0,0,1-1.14-1.82c-56-77.76-147.13-128.54-249.6-128.54-103.15,0-195,51.46-250.74,130.36a305,305,0,0,0-33.55,60.75Z" transform="translate(-1604.51 -607)"/></svg>